<svg width="10" height="10" fill="none" xmlns="http://www.w3.org/2000/svg"><g clip-path="url(#clip0_2988_11713)"><path d="M5.002 5.963l-3.741-3.74a.542.542 0 00-.387-.16.543.543 0 00-.387.16L.16 2.55a.543.543 0 00-.16.387c0 .147.057.284.16.387l4.454 4.454c.103.103.241.16.388.16a.543.543 0 00.388-.16l4.45-4.45A.543.543 0 0010 2.94a.543.543 0 00-.16-.387l-.327-.327a.548.548 0 00-.774 0L5.002 5.963z" fill="#282C31"/></g><defs><clipPath id="clip0_2988_11713"><path fill="#fff" transform="rotate(-90 5 5)" d="M0 0h10v10H0z"/></clipPath></defs></svg>