<svg width="20" height="20" fill="none" xmlns="http://www.w3.org/2000/svg"><g clip-path="url(#clip0_2988_11653)"><path d="M11.832 10.016l7.788-7.788a1.294 1.294 0 000-1.832 1.294 1.294 0 00-1.832 0L10 8.183 2.212.396A1.294 1.294 0 10.38 2.228l7.788 7.788L.38 17.803a1.294 1.294 0 00.916 2.212c.332 0 .664-.127.916-.38L10 11.849l7.788 7.788a1.292 1.292 0 001.832 0 1.294 1.294 0 000-1.833l-7.788-7.787z" fill="#fff"/></g><defs><clipPath id="clip0_2988_11653"><path fill="#fff" d="M0 0h20v20H0z"/></clipPath></defs></svg>