<svg width="9" height="8" fill="none" xmlns="http://www.w3.org/2000/svg"><g clip-path="url(#clip0_2988_11803)"><path d="M8.357 2.032l-.263-.264a.434.434 0 00-.309-.128.435.435 0 00-.31.128l-2.989 2.99-2.993-2.994a.434.434 0 00-.309-.127.435.435 0 00-.31.127l-.262.263a.438.438 0 000 .619l3.564 3.576c.082.082.192.14.31.14h.001a.447.447 0 00.31-.14l3.56-3.567a.442.442 0 000-.623z" fill="#fff"/></g><defs><clipPath id="clip0_2988_11803"><path fill="#fff" transform="translate(.484)" d="M0 0h8v8H0z"/></clipPath></defs></svg>