<svg width="20" height="20" fill="none" xmlns="http://www.w3.org/2000/svg"><g clip-path="url(#clip0_2988_12355)"><path d="M19.234 12.192l-1.823-1.438c.023-.221.043-.48.043-.755 0-.274-.02-.533-.043-.755l1.824-1.438a.907.907 0 00.216-1.148L17.555 3.35a.875.875 0 00-1.096-.397l-2.15.87a7.359 7.359 0 00-1.292-.756l-.327-2.3A.88.88 0 0011.814 0h-3.8a.878.878 0 00-.875.76l-.328 2.31a7.586 7.586 0 00-1.289.755l-2.156-.873a.893.893 0 00-1.089.39L.38 6.654a.901.901 0 00.214 1.154l1.823 1.438c-.029.28-.043.525-.043.754 0 .23.014.473.043.755L.593 12.193a.907.907 0 00-.215 1.149l1.895 3.307a.874.874 0 001.097.398l2.15-.871c.412.299.844.552 1.291.756l.327 2.3a.88.88 0 00.876.768h3.8c.446 0 .823-.33.876-.76l.328-2.308a7.62 7.62 0 001.289-.757l2.156.873a.871.871 0 001.088-.39l1.904-3.325a.905.905 0 00-.221-1.141zm-9.32 1.141c-1.823 0-3.305-1.495-3.305-3.333S8.09 6.667 9.914 6.667c1.822 0 3.305 1.495 3.305 3.333s-1.483 3.333-3.305 3.333z" fill="#282C31"/></g><defs><clipPath id="clip0_2988_12355"><path fill="#fff" d="M0 0h19.83v20H0z"/></clipPath></defs></svg>