<svg width="20" height="20" fill="none" xmlns="http://www.w3.org/2000/svg"><g clip-path="url(#clip0_2988_12351)"><path d="M9.915 0C4.448 0 0 4.486 0 10s4.448 10 9.915 10c5.467 0 9.915-4.486 9.915-10S15.382 0 9.915 0zm.645 15.933c-.471.08-1.409.277-1.884.317-.403.034-.784-.199-1.015-.533a1.259 1.259 0 01-.15-1.144l1.874-5.198H7.436c-.002-1.083.804-1.88 1.834-2.185.492-.146 1.408-.346 1.884-.315.286.018.783.199 1.015.533.232.334.288.761.15 1.144l-1.874 5.198h1.948a2.207 2.207 0 01-1.833 2.183zm.594-9.683c-.684 0-1.24-.56-1.24-1.25s.556-1.25 1.24-1.25c.685 0 1.24.56 1.24 1.25s-.555 1.25-1.24 1.25z" fill="#fff"/></g><defs><clipPath id="clip0_2988_12351"><path fill="#fff" d="M0 0h19.83v20H0z"/></clipPath></defs></svg>