<svg width="16" height="16" fill="none" xmlns="http://www.w3.org/2000/svg"><g clip-path="url(#clip0_2999_7571)" fill="#282C31"><path d="M11.669 0H4.33A4.336 4.336 0 000 4.331v7.338A4.336 4.336 0 004.331 16h7.338A4.336 4.336 0 0016 11.669V4.331A4.336 4.336 0 0011.669 0zM8 12.375A4.38 4.38 0 013.625 8 4.38 4.38 0 018 3.625 4.38 4.38 0 0112.375 8 4.38 4.38 0 018 12.375zm4.48-7.718c-.713 0-1.293-.58-1.293-1.293s.58-1.293 1.293-1.293a1.294 1.294 0 01-.001 2.586z"/><path d="M8 4.563a3.44 3.44 0 00-3.438 3.436A3.44 3.44 0 008 11.436 3.44 3.44 0 0011.436 8 3.44 3.44 0 008 4.563zm4.48-1.555a.355.355 0 100 .71.355.355 0 000-.71z"/></g><defs><clipPath id="clip0_2999_7571"><path fill="#fff" d="M0 0h16v16H0z"/></clipPath></defs></svg>