<svg width="27" height="27" fill="none" xmlns="http://www.w3.org/2000/svg"><path d="M25.636 22.738l-6.84-6.84a10.157 10.157 0 001.701-5.65C20.497 4.599 15.9 0 10.25 0 4.598 0 0 4.598 0 10.249c0 5.65 4.598 10.248 10.249 10.248 2.027 0 3.97-.587 5.649-1.7l1.89 1.89h.001l4.949 4.95c.387.386.902.6 1.449.6s1.062-.213 1.45-.6c.386-.388.6-.902.6-1.45 0-.548-.214-1.062-.6-1.45zm-9.98-5.022a9.145 9.145 0 01-5.407 1.757c-5.086 0-9.224-4.138-9.224-9.224s4.138-9.224 9.224-9.224 9.224 4.138 9.224 9.224a9.145 9.145 0 01-1.757 5.408 9.268 9.268 0 01-2.06 2.06zm1.076.465a10.29 10.29 0 001.449-1.45l1.454 1.455a12.44 12.44 0 01-1.45 1.449l-1.453-1.454zm8.18 6.73c-.194.194-.451.3-.725.3-.274 0-.53-.106-.725-.3l-4.55-4.55c.52-.445 1.004-.93 1.45-1.449l4.55 4.55a1.021 1.021 0 010 1.449z" fill="#fff"/></svg>