<svg width="36" height="40" fill="none" xmlns="http://www.w3.org/2000/svg"><g clip-path="url(#clip0_2988_12077)"><path d="M.008 19.989c0-5.91 0-11.828-.008-17.737C0 1.61.133 1.04.602.579 1.266-.07 2.18-.187 3.049.297a2956.11 2956.11 0 016.777 3.807c8.286 4.66 16.58 9.326 24.866 13.985.727.407 1.267.915 1.313 1.798.047.907-.383 1.532-1.157 1.962-2.29 1.282-4.58 2.58-6.87 3.862-8.28 4.659-16.558 9.302-24.828 13.977-1.336.758-2.767.07-3.072-1.15-.07-.273-.07-.57-.07-.851-.008-5.902 0-11.796 0-17.698z" fill="#fff"/></g><defs><clipPath id="clip0_2988_12077"><path fill="#fff" d="M0 0h36.005v40H0z"/></clipPath></defs></svg>