<svg width="17" height="16" fill="none" xmlns="http://www.w3.org/2000/svg"><g clip-path="url(#clip0_2988_11810)"><path d="M16.289 14.862l-4.55-4.55a6.302 6.302 0 001.412-3.979A6.34 6.34 0 006.818 0 6.34 6.34 0 00.484 6.333a6.34 6.34 0 006.334 6.333c1.506 0 2.89-.53 3.978-1.411l4.55 4.55a.665.665 0 00.943 0 .666.666 0 000-.943zm-9.471-3.529c-2.758 0-5-2.242-5-5 0-2.757 2.242-5 5-5 2.757 0 5 2.243 5 5 0 2.758-2.243 5-5 5z" fill="#fff"/></g><defs><clipPath id="clip0_2988_11810"><path fill="#fff" transform="translate(.484)" d="M0 0h16v16H0z"/></clipPath></defs></svg>