<svg width="14" height="14" fill="none" xmlns="http://www.w3.org/2000/svg"><g clip-path="url(#clip0_2997_13056)" fill="#282C31"><path d="M6.903 6.744c.927 0 1.729-.332 2.385-.988a3.263 3.263 0 00.987-2.384A3.26 3.26 0 009.287.988 3.263 3.263 0 006.903 0C5.977 0 5.175.332 4.52.988a3.263 3.263 0 00-.988 2.384c0 .926.333 1.729.988 2.384a3.263 3.263 0 002.384.988zm5.897 4.02a8.324 8.324 0 00-.113-.884 6.98 6.98 0 00-.218-.89 4.395 4.395 0 00-.365-.83 3.13 3.13 0 00-.552-.718 2.43 2.43 0 00-.792-.497 2.737 2.737 0 00-1.01-.183c-.144 0-.282.058-.549.232l-.57.368a3.271 3.271 0 01-.74.326 2.925 2.925 0 01-.903.146c-.3 0-.604-.05-.903-.146a3.263 3.263 0 01-.739-.326c-.212-.135-.404-.26-.571-.368-.267-.174-.405-.232-.548-.232-.364 0-.704.061-1.01.183-.309.122-.575.29-.793.498-.208.199-.393.44-.551.718a4.402 4.402 0 00-.366.83c-.087.273-.16.572-.217.889a8.3 8.3 0 00-.114.885c-.018.268-.028.546-.028.826 0 .731.233 1.323.69 1.76.453.43 1.052.648 1.78.648h6.741c.728 0 1.327-.218 1.78-.649.457-.436.69-1.027.69-1.759 0-.282-.01-.56-.029-.826z"/></g><defs><clipPath id="clip0_2997_13056"><path fill="#fff" d="M0 0h14v14H0z"/></clipPath></defs></svg>